<svg xmlns="http://www.w3.org/2000/svg" xmlns:xlink="http://www.w3.org/1999/xlink" viewBox="0 0 640 510">
  <defs>
    <style>
      .cls-1 {
        isolation: isolate;
      }

      .cls-15, .cls-2 {
        fill: #262626;
      }

      .cls-3 {
        opacity: 0.2;
        mix-blend-mode: multiply;
      }

      .cls-4 {
        fill: #0c0c0c;
      }

      .cls-5 {
        fill: url(#linear-gradient);
      }

      .cls-6 {
        fill: url(#linear-gradient-2);
      }

      .cls-7 {
        fill: url(#linear-gradient-3);
      }

      .cls-8 {
        fill: url(#New_Gradient_Swatch_3);
      }

      .cls-9 {
        fill: url(#radial-gradient);
      }

      .cls-10 {
        fill: url(#linear-gradient-4);
      }

      .cls-11 {
        fill: #696969;
      }

      .cls-12 {
        fill: url(#linear-gradient-5);
      }

      .cls-13 {
        fill: url(#linear-gradient-6);
      }

      .cls-14, .cls-15 {
        stroke: #0c0c0c;
        stroke-linecap: round;
        stroke-linejoin: round;
        stroke-width: 1.39px;
      }

      .cls-14 {
        fill: url(#linear-gradient-7);
      }

      .cls-16 {
        opacity: 0.59;
        fill: url(#linear-gradient-8);
      }

      .cls-16, .cls-17, .cls-19, .cls-21 {
        mix-blend-mode: screen;
      }

      .cls-17 {
        opacity: 0.76;
      }

      .cls-18 {
        fill: #fff;
      }

      .cls-19 {
        opacity: 0.73;
      }

      .cls-20 {
        fill: url(#linear-gradient-9);
      }

      .cls-21 {
        opacity: 0.78;
        fill: url(#linear-gradient-10);
      }
    </style>
    <linearGradient id="linear-gradient" x1="392.19" y1="81.47" x2="454" y2="412.6" gradientUnits="userSpaceOnUse">
      <stop offset="0" stop-color="#fff"/>
      <stop offset="1" stop-color="#e6e6e6"/>
    </linearGradient>
    <linearGradient id="linear-gradient-2" x1="240.13" y1="86.53" x2="307.15" y2="445.55" xlink:href="#linear-gradient"/>
    <linearGradient id="linear-gradient-3" x1="247.11" y1="78.99" x2="94.44" y2="254.23" gradientUnits="userSpaceOnUse">
      <stop offset="0" stop-color="#4c0000"/>
      <stop offset="1" stop-color="red"/>
    </linearGradient>
    <linearGradient id="New_Gradient_Swatch_3" data-name="New Gradient Swatch 3" x1="311.4" y1="18.14" x2="534.97" y2="253.85" gradientUnits="userSpaceOnUse">
      <stop offset="0" stop-color="#c30000"/>
      <stop offset="1" stop-color="red"/>
    </linearGradient>
    <radialGradient id="radial-gradient" cx="249.25" cy="60.32" r="253.77" xlink:href="#New_Gradient_Swatch_3"/>
    <linearGradient id="linear-gradient-4" x1="357.5" y1="86.71" x2="396.03" y2="86.71" xlink:href="#linear-gradient"/>
    <linearGradient id="linear-gradient-5" x1="359.98" y1="35.43" x2="414.4" y2="35.43" xlink:href="#linear-gradient"/>
    <linearGradient id="linear-gradient-6" x1="396.49" y1="83.76" x2="416.36" y2="83.76" xlink:href="#linear-gradient"/>
    <linearGradient id="linear-gradient-7" x1="266.19" y1="302.84" x2="250.54" y2="420.23" gradientUnits="userSpaceOnUse">
      <stop offset="0" stop-color="#4d2900"/>
      <stop offset="1" stop-color="#824600"/>
    </linearGradient>
    <linearGradient id="linear-gradient-8" x1="401.01" y1="108.39" x2="527.77" y2="241.51" gradientUnits="userSpaceOnUse">
      <stop offset="0"/>
      <stop offset="1" stop-color="#fff"/>
    </linearGradient>
    <linearGradient id="linear-gradient-9" x1="305.01" y1="94.07" x2="494.35" y2="289.78" xlink:href="#linear-gradient-8"/>
    <linearGradient id="linear-gradient-10" x1="106.45" y1="200.35" x2="246.46" y2="47.07" xlink:href="#linear-gradient-8"/>
  </defs>
  <g class="cls-1">
    <g id="Layer_1" data-name="Layer 1">
      <g>
        <path class="cls-2" d="M389.21,458.47c-84.91-15.79-156.49-34.21-235.85-53.23-1.53-.39-15.23-4.4-19.82-25.64-2.84-12.94-17.45-82.14-27.23-128.14l-18.2,8.46c-9.61,7.3-15.51-5.14-21.61-12.53C61.86,232.59,184.26,104.47,234.15,40c5-8.42,118.39-26.64,136.26-32.55,19.45-3.9,22.88,4.88,38.11,20.33,13.3-.61,12.66.33,12.41,12.94,41.16,47,103.16,103,134.4,139.23,10.24,11.89,21,20.73,19,28.32-.51,1.91-70.81,84.94-76.36,93.52-1.46,2.15-3.54,3.7-5.5,5.39-.06.28-10.79,44.31-10.8,44.56-.39,2.48-2.24,9.38-11.18,19.91-8.17,9.84-50.89,62-63.67,78.44C404.07,455.58,398,458.47,389.21,458.47Z"/>
        <rect class="cls-2" x="3.01" y="440.49" width="633.97" height="66.51" rx="17.25"/>
        <g class="cls-3">
          <path class="cls-4" d="M433.49,288.36l2.06-16.73S252.1,77.27,250,77.27,107.63,236.82,107.63,236.82s2.71,13.89,4.47,22.18L254.76,103.08S380.74,232.88,433.49,288.36Z"/>
        </g>
        <path class="cls-5" d="M437.54,277.38c1.42,1.3,3,2.77,4.15,4,2,2.1,26.3,23.28,43.11,26.29l-10.36,42.63v.26s-.71,5.94-9.53,16.33c-7.51,8.85-41.4,50.7-56.8,69.74Z"/>
        <path class="cls-6" d="M389.21,451.14A57.46,57.46,0,0,1,377,449.56c-26.86-6-66.19-15.05-74-16.84l-5.61-11L230.7,408,219,414l-63.88-15.84c-.4-.11-10.74-3.1-14.41-20.07-3.87-17.86-26.87-126.4-29.83-140.38C162.11,179.43,237.49,94.23,250.07,81.31,266.31,97,384.5,221.93,432.32,272.59l-31.51,170.5.08.51a6,6,0,0,1-1.43,4.4C397.66,450.05,394.12,451.14,389.21,451.14Z"/>
        <path class="cls-4" d="M443.88,279.36c-3.05-3.27-8.33-7.73-8.33-7.73S252.1,77.27,250,77.27,107.63,236.82,107.63,236.82c1.91,5.3,25.7,129.08,33.2,151l-.15.35.41.17C146.41,399,154.4,401,154.4,401l65,16.12.19-.1,0,.8,5.88,1.53-.28-5.21,5.94-3,63.21,13,.16,11.31,6.31,1.31V435l.15.29s45.22,10.39,75.36,17.16c9.23,2.81,25.41,2.32,27-5.18,0,0,0,0,0,.06,10.38-15.85,68.72-78,74.13-96.59l11.11-45.73C473.94,305.05,446.93,282.62,443.88,279.36Zm-2.87,8.7a176.16,176.16,0,0,0,22.51,16.3L422.73,387ZM257.5,96.45c16.29,16.78,46.32,48.27,79.53,83.25l-76.37,60Zm-10.86,138.9-63.39-71.58c24.64-27.81,47.18-53.12,60.32-67.58Zm-9.38,10.41L123,232c16-18.12,33.73-38.26,50.94-57.71ZM213.8,257l33.4,4,1.11,50.13-32.75-4.7Zm48.48,56.16-1.11-50.44L298,267.11l.59,51.22Zm8.12-63.35,76.26-59.92c24.85,26.2,50.87,53.7,73.84,78ZM118,245.4l78.28,9.44L145.75,376C141.92,358.27,124.23,274.84,118,245.4ZM154.3,391.72l46.41-111.35L205.14,405l-48.71-12.08A9.27,9.27,0,0,1,154.3,391.72ZM232.81,403c-2.81-.74-5.7.76-8.1,2.08l-4.91-92.38L293,324.44l1.25,91.18Zm81,26.74L312.2,292.49l73.85,153.14C363.55,441.82,331.32,433.37,313.78,429.71Zm83,6L316.49,269.34l108.57,13.09Zm72.57-86.92c-5.2,15.12-19.7,26.28-36.07,48.32l42.71-86.49c.82.32,1.63.62,2.42.88Z"/>
        <g>
          <path class="cls-7" d="M241.72,78.74a14.15,14.15,0,0,1,1.18-.81,23,23,0,0,1,3.1-.38c.55,0,1-.06,1.45-.06a9.61,9.61,0,0,1,1.23.07c-3.46,3.26-16.6,17.45-71.15,79C142.59,196,107.46,236,107.11,236.36a.69.69,0,0,0-.16.6l1.67,7.88-20.19,9.39Z"/>
          <path class="cls-4" d="M247,78.2c-1.05,1.08-2.54,2.66-4.68,5-3.83,4.14-9.36,10.23-16.43,18.09C214,114.51,197.53,133,177,156.12c-34.94,39.43-70.07,79.38-70.42,79.78a1.4,1.4,0,0,0-.32,1.21l1.55,7.33-16.7,7.77L242.18,79.28a9,9,0,0,1,1-.69,22.45,22.45,0,0,1,2.88-.35l.93,0m.48-1.4c-.43,0-.92,0-1.5,0a23.54,23.54,0,0,0-3.31.42,11.07,11.07,0,0,0-1.44,1l-155.46,178,23.44-10.91.21-.24-1.76-8.28S248,77.27,250,77.27c0,0-.26-.47-2.57-.47Z"/>
        </g>
        <g>
          <path class="cls-8" d="M495,297.38c-.41-3.62-4.54-6.9-5.07-7.31-10-10.53-232-244.08-233.63-245.69A24.56,24.56,0,0,0,248.19,39c19.2-4.13,114.22-24.59,123.34-26.66a30.8,30.8,0,0,1,6.79-.83,16.44,16.44,0,0,1,12.5,5c.85.89,161.41,168.33,173.56,180.75,3.78,3.86,5.51,7.32,5,10a5.57,5.57,0,0,1-2.91,3.72.58.58,0,0,0-.25.18C563.56,214.43,504.8,284.87,495,297.38Z"/>
          <path class="cls-4" d="M378.32,12.24c5,0,8.94,1.57,12,4.81.84.9,161.41,168.34,173.57,180.77,3.59,3.67,5.25,6.91,4.81,9.37a4.8,4.8,0,0,1-2.53,3.24,1.55,1.55,0,0,0-.5.38c-2.58,3.09-58.21,69.78-70.31,85-1.09-3.14-4.21-5.69-4.95-6.26-10.54-11.09-232-244-233.6-245.66a26.72,26.72,0,0,0-6.33-4.64c23.24-5,112.38-24.2,121.2-26.2a30.1,30.1,0,0,1,6.64-.81m0-1.39a31.72,31.72,0,0,0-6.95.84C361.16,14,244.69,39.07,244.69,39.07c4.63,0,9.51,4.18,11.13,5.8S489.48,290.59,489.48,290.59s6,4.53,4.67,8.61l.2.21c3.48-5.11,72.39-87.71,72.39-87.71s8.81-3.95-1.86-14.85S395,20,391.33,16.1c-2.78-3-6.86-5.25-13-5.25Z"/>
        </g>
        <g>
          <path class="cls-9" d="M477.73,311.9c-1.58,0-3.32-.94-5.16-2.78-5.09-5.09-189.81-198.23-222-232.29-.39-.48-1.43-.73-3.11-.73-.44,0-.95,0-1.54.06-3.54.23-4.65.79-4.76.85a.7.7,0,0,0-.19.15L85.26,255.75a4.93,4.93,0,0,1-2.94,1.39A3.36,3.36,0,0,1,80,256c-2.36-2.37-8.27-9.93-8.93-10.77-.16-.42-.88-2.92,2-6.39,3.44-4.13,163.36-193.69,165-195.6a8.73,8.73,0,0,1,6.67-3.46c4.9,0,10.07,5,10.64,5.59C256.93,47,486.65,288.63,489,291.07l.09.08s4.51,3.42,4.62,6.7a3.54,3.54,0,0,1-1.41,2.89c-5,4.35-11.76,9.9-11.82,10l-.1.09A3.5,3.5,0,0,1,477.73,311.9Z"/>
          <path class="cls-4" d="M244.69,40.47c3.75,0,8.14,3.38,10.15,5.39,1.81,1.82,231.31,243.25,233.63,245.69a1.22,1.22,0,0,0,.17.15c1.18.89,4.26,3.73,4.34,6.17a2.86,2.86,0,0,1-1.16,2.34c-5,4.35-11.75,9.9-11.82,10l-.17.18a3,3,0,0,1-2.1.86c-1.37,0-3-.89-4.67-2.57-5.08-5.09-189.68-198.1-222-232.25-.53-.67-1.68-1-3.64-1-.48,0-1,0-1.59,0-3.51.24-4.75.78-5,.94a1.16,1.16,0,0,0-.39.31L84.77,255.25a4.34,4.34,0,0,1-2.45,1.2,2.65,2.65,0,0,1-1.85-.95c-2.27-2.27-7.86-9.4-8.8-10.61-.16-.53-.55-2.65,1.92-5.62,3.44-4.12,163.35-193.68,165-195.59l.09-.11a7.86,7.86,0,0,1,6.05-3.1m0-1.4a9.32,9.32,0,0,0-7.2,3.71S76,234.21,72.52,238.38s-2.09,7.19-2.09,7.19,6.5,8.36,9,10.91a4,4,0,0,0,2.84,1.36,5.62,5.62,0,0,0,3.42-1.59L241.48,77.62s1-.54,4.47-.77c.58,0,1.07,0,1.5,0,2.31,0,2.57.47,2.57.47,31.73,33.56,217,227.26,222.06,232.34,2.3,2.31,4.21,3,5.65,3a4.3,4.3,0,0,0,3.16-1.35s6.73-5.57,11.84-10-3.25-10.67-3.25-10.67S257.45,46.5,255.82,44.87s-6.5-5.8-11.13-5.8Z"/>
        </g>
        <g>
          <polygon class="cls-10" points="357.5 94.85 357.97 38.75 396.03 39.1 395.79 134.66 357.5 94.85"/>
          <path class="cls-11" d="M358.32,39.1l37.36.35-.23,94.35-37.6-39.09.47-55.61m-.69-.7L357.15,95l39,40.54.24-96.77-38.75-.36Z"/>
        </g>
        <g>
          <polygon class="cls-12" points="359.98 38.08 378.88 32.55 414.4 32.45 396.32 38.41 359.98 38.08"/>
          <path class="cls-11" d="M412.21,32.81l-15.94,5.25-33.93-.31,16.54-4.83,33.33-.11m4.38-.71-37.81.12L357.63,38.4l38.75.36,20.21-6.66Z"/>
        </g>
        <g>
          <polygon class="cls-13" points="396.73 39.01 416.24 32.58 416.36 124.38 396.49 134.95 396.73 39.01"/>
          <path class="cls-11" d="M415.89,33.06l.12,91.11-19.17,10.2.23-95.11,18.82-6.2m.7-1-20.21,6.66-.24,96.77,20.57-10.94-.12-92.49Z"/>
        </g>
        <polygon class="cls-14" points="292.97 324.44 219.81 312.67 224.97 409.97 227.27 413.57 294.41 429.24 292.97 324.44"/>
        <polygon class="cls-15" points="219.81 312.67 225.47 419.38 230.88 414.32 226.53 313.75 219.81 312.67"/>
        <path class="cls-16" d="M488.62,277.59l9,9.22,66.1-78.26s2.56-3.54-1.36-7.85S418.6,50.05,418.6,50.05s98.26,135.35,103,144.37C517.85,205.21,488.62,277.59,488.62,277.59Z"/>
        <g class="cls-17">
          <path class="cls-18" d="M378.32,12.24a30.1,30.1,0,0,0-6.64.81c-8.82,2-98,21.2-121.2,26.2a26.72,26.72,0,0,1,6.33,4.64L257.9,45c19.88-4.89,91.16-22.35,129.41-30.39A16.48,16.48,0,0,0,378.32,12.24Z"/>
        </g>
        <g class="cls-19">
          <path class="cls-20" d="M491.64,284.28C457.58,249.54,358,144,303.91,92.62c68.4,71.92,185.57,195.18,185.57,195.18a18.81,18.81,0,0,1,2.95,2.92C493.21,289.5,493.21,285.89,491.64,284.28Z"/>
        </g>
        <path class="cls-21" d="M250.69,49.86c-2.16-2.35-5.3-4.51-7.65-4.12-9.81,3.14-137.31,156.14-137.31,156.14S185,109.88,250.69,49.86Z"/>
        <g>
          <path class="cls-18" d="M347.58,472.07H361v6.38H347.58Z"/>
          <g>
            <path class="cls-18" d="M57.84,462.73l-6.26,28h-9.9l-2.81-12.53q-.73-3.24-1.08-4.94l-.5-2.46-.5-2.46h-.2l-.5,2.46-.5,2.48q-.31,1.65-1.05,4.92l-2.81,12.53h-10l-6.24-28h6.76l2.7,13c.33,1.62.66,3.35,1,5.21l.47,2.6.5,2.61H27l.59-2.61.56-2.6q.44-2,1.2-5.19l3-13h8.55l3,13q.85,3.66,1.2,5.19l.56,2.6.56,2.61h.14l.5-2.61.47-2.6q.49-2.7,1-5.21l2.73-13Z"/>
            <path class="cls-18" d="M104.67,462.73l-6.26,28h-9.9L85.7,478.18q-.74-3.24-1.08-4.94l-.5-2.46-.49-2.46h-.21l-.5,2.46-.5,2.48q-.32,1.65-1,4.92l-2.81,12.53h-10l-6.24-28H69l2.7,13c.33,1.62.66,3.35,1,5.21l.47,2.6.5,2.61h.12l.58-2.61.56-2.6q.44-2,1.2-5.19l3-13h8.55l3,13q.84,3.66,1.2,5.19l.55,2.6.56,2.61h.15l.49-2.61.47-2.6q.5-2.7,1-5.21l2.72-13Z"/>
            <path class="cls-18" d="M151.51,462.73l-6.27,28h-9.89l-2.81-12.53q-.73-3.24-1.09-4.94l-.5-2.46-.49-2.46h-.21l-.5,2.46-.49,2.48c-.22,1.1-.57,2.74-1.06,4.92l-2.81,12.53h-10l-6.24-28h6.77l2.69,13c.33,1.62.66,3.35,1,5.21l.47,2.6.49,2.61h.12l.58-2.61.56-2.6q.43-2,1.2-5.19l3.05-13h8.54l3,13q.85,3.66,1.2,5.19l.55,2.6.56,2.61h.15l.5-2.61.46-2.6q.51-2.7,1-5.21l2.72-13Z"/>
            <path class="cls-18" d="M161.31,483.51v7.2h-6.7v-7.2Z"/>
            <path class="cls-18" d="M185.44,480h6.67v1l-.41,4.25q-1.23,5.79-12,5.8-7.9,0-10.51-2.86t-2.61-11.49q0-8.43,2.61-11.36t10.13-2.93q7.26,0,9.83,2.13t2.58,8.06h-6.64c0-3.26-1.89-4.89-5.65-4.89q-4,0-5,1.55t-1,7.62q0,5.85,1.12,7.36c.75,1,2.59,1.51,5.52,1.51,2.3,0,3.78-.35,4.44-1S185.44,482.45,185.44,480Z"/>
            <path class="cls-18" d="M209.33,462.4c5.4,0,8.95.87,10.62,2.59s2.52,5.38,2.52,10.94q0,9.31-2.46,12.21T209.65,491q-8.58,0-11.11-2.7c-1.69-1.79-2.54-5.75-2.54-11.85q0-8.82,2.49-11.45T209.33,462.4Zm-.06,5.3c-2.79,0-4.57.51-5.33,1.51s-1.14,3.35-1.14,7c0,4.22.36,6.85,1.08,7.91s2.53,1.58,5.42,1.58,4.55-.56,5.28-1.67,1.1-3.79,1.1-8c0-3.57-.38-5.86-1.14-6.85S212,467.7,209.27,467.7Z"/>
            <path class="cls-18" d="M234.77,450.75v40h-6.71v-40Z"/>
            <path class="cls-18" d="M253.65,462.4q8.1,0,10.63,2.59t2.51,10.94q0,9.31-2.45,12.21T254,491q-8.58,0-11.11-2.7c-1.69-1.79-2.53-5.75-2.53-11.85q0-8.82,2.49-11.45T253.65,462.4Zm-.06,5.3c-2.79,0-4.56.51-5.33,1.51s-1.14,3.35-1.14,7c0,4.22.36,6.85,1.09,7.91s2.52,1.58,5.41,1.58,4.55-.56,5.29-1.67,1.09-3.79,1.09-8c0-3.57-.38-5.86-1.14-6.85S256.34,467.7,253.59,467.7Z"/>
            <path class="cls-18" d="M272.39,462.73H279l-.26,4.71.15,0q1.95-5.07,8.78-5.07,9.92,0,9.92,9.26v19h-6.7V472.8l-.15-2c-.31-2.08-1.95-3.13-4.91-3.13q-6.76,0-6.77,6.41v16.6h-6.7Z"/>
            <path class="cls-18" d="M310.88,450.75v5.59h-6.7v-5.59Zm0,12v28h-6.7v-28Z"/>
            <path class="cls-18" d="M324.44,470.83h-6.85c0-3.35.78-5.6,2.34-6.73s4.66-1.7,9.28-1.7q7.56,0,10.22,2.08c1.78,1.39,2.66,4,2.66,7.94v18.29h-6.7l.32-3.83-.17,0q-1.94,4.18-8.93,4.19-10.17,0-10.16-8.64t10.39-8.73q6.95,0,8.44,3.2h.11v-4.54q0-3.29-1.14-4.35c-.76-.71-2.33-1.07-4.68-1.07Q324.44,466.91,324.44,470.83Zm4.48,7.35q-5.69,0-5.68,3.93,0,2.72,1.17,3.57c.78.56,2.42.85,4.92.85q6.12,0,6.12-4.13T328.92,478.18Z"/>
            <path class="cls-18" d="M385.51,462.73v5.09H374.73v14.05q0,3.9,3,3.9,3.26,0,3.25-4.72v-1.11h5.71v1.4c0,1.29,0,2.4-.12,3.31q-.55,6.42-9.54,6.41t-9-8.22v-15H364.4v-5.09H368v-6.27h6.7v6.27Z"/>
            <path class="cls-18" d="M405.81,462.4q8.12,0,10.63,2.59T419,475.93q0,9.31-2.46,12.21T406.13,491q-8.56,0-11.11-2.7c-1.68-1.79-2.53-5.75-2.53-11.85q0-8.82,2.49-11.45T405.81,462.4Zm-.06,5.3c-2.79,0-4.56.51-5.32,1.51s-1.14,3.35-1.14,7c0,4.22.36,6.85,1.08,7.91s2.53,1.58,5.41,1.58,4.56-.56,5.29-1.67,1.1-3.79,1.1-8c0-3.57-.38-5.86-1.14-6.85S408.51,467.7,405.75,467.7Z"/>
            <path class="cls-18" d="M448.94,462.73l-8,28H430.44l-8.43-28h7.11l3.69,12.91q.76,2.69,1.4,5.21l.68,2.6.67,2.61h.15l.61-2.61.62-2.57c.47-2,.91-3.69,1.32-5.22l3.45-12.93Z"/>
            <path class="cls-18" d="M460,470.83h-6.85c0-3.35.78-5.6,2.35-6.73s4.65-1.7,9.28-1.7q7.55,0,10.21,2.08c1.78,1.39,2.67,4,2.67,7.94v18.29h-6.7l.32-3.83-.18,0q-1.93,4.18-8.93,4.19Q452,491,452,482.4t10.39-8.73q6.94,0,8.43,3.2h.13v-4.54c0-2.19-.39-3.64-1.15-4.35s-2.32-1.07-4.68-1.07Q460,466.91,460,470.83Zm4.48,7.35c-3.78,0-5.68,1.31-5.68,3.93,0,1.81.39,3,1.18,3.57s2.41.85,4.91.85q6.12,0,6.12-4.13T464.46,478.18Z"/>
            <path class="cls-18" d="M484.49,462.73h6.7l-.4,3.92.14,0a8,8,0,0,1,7.55-4.39q7.38,0,7.38,9.31v2h-6.32c.08-.76.11-1.26.11-1.49q0-4.49-3.48-4.49-5,0-5,6.65v16.48h-6.7Z"/>
            <path class="cls-18" d="M516,483.51v7.2h-6.7v-7.2Z"/>
            <path class="cls-18" d="M540.12,480h6.67v1l-.41,4.25q-1.23,5.79-12,5.8-7.9,0-10.51-2.86t-2.61-11.49q0-8.43,2.61-11.36T534,462.4c4.85,0,8.12.71,9.84,2.13s2.58,4.1,2.58,8.06h-6.65q0-4.89-5.65-4.89-4,0-5,1.55t-1,7.62q0,5.85,1.13,7.36c.75,1,2.59,1.51,5.52,1.51,2.3,0,3.78-.35,4.43-1S540.12,482.45,540.12,480Z"/>
            <path class="cls-18" d="M564,462.4q8.12,0,10.63,2.59t2.52,10.94q0,9.31-2.46,12.21T564.32,491q-8.57,0-11.11-2.7c-1.68-1.79-2.53-5.75-2.53-11.85q0-8.82,2.49-11.45T564,462.4Zm0,5.3c-2.8,0-4.57.51-5.33,1.51s-1.15,3.35-1.15,7c0,4.22.37,6.85,1.09,7.91s2.53,1.58,5.41,1.58,4.56-.56,5.29-1.67,1.1-3.79,1.1-8c0-3.57-.38-5.86-1.14-6.85S566.7,467.7,564,467.7Z"/>
            <path class="cls-18" d="M582.74,462.73h6.7l-.17,4.3.15,0q2-4.65,8.54-4.66,7.59,0,8.43,5.18h.12q2-5.18,8.64-5.18,9.72,0,9.72,9.78v18.53h-6.71V473.65q0-6-4.89-5.95c-4.07,0-6.12,2.22-6.12,6.65v16.36h-6.7V473.38c0-2.32-.31-3.85-.92-4.58s-1.92-1.1-3.91-1.1q-6.18,0-6.18,6.79v16.22h-6.7Z"/>
          </g>
        </g>
      </g>
    </g>
  </g>
</svg>
